<!-- cls-3: fill text and stuff -->
<svg xmlns="http://www.w3.org/2000/svg" viewBox="0 0 612 614">
    <defs>
        <style>
            .cls-2,.cls-3,.cls-5{fill:#0b3e79;}
            .cls-2{stroke:#0b3e79;stroke-miterlimit:3.86;stroke-width:0.5px;}
        </style>
    </defs>
    <title>COA Seal_official_color_eps [Converted]</title>
    <g id="Foreground">
        <path class="cls-2" d="M103.62,101.62A289,289,0,1,0,512.33,510.33,289,289,0,0,0,103.62,101.62Zm4.24,404.47A283,283,0,0,1,508.09,105.87,283,283,0,0,1,107.86,506.09Z"/>
        <path class="cls-3" d="M81,306c0,125.17,101.83,227,227,227S535,431.15,535,306,433.14,79,308,79,81,180.81,81,306Zm4,0C85,183,185,83,308,83S531,183,531,306s-100,223-223,223S85,428.94,85,306Z"/>
        <path class="cls-3" d="M464.36,215.77H448V190.19l6.34-5.74V172.23h-14l-19.58-13.68-1.1.68-21.27,13H387.84v4.53H359.65l-.37-.11s3.35-1.12,4.47-2.91-2.23-2.68-2.23-2.68L364,170c2.46-1.12,2.79-3.16,1.67-3.83s-2.09-1.39-2.09-1.39a8.56,8.56,0,0,0,1.76-1.94,7.52,7.52,0,0,0,1.73-3.75c.22-1.12-2.4-1.84-2.4-1.84a63.34,63.34,0,0,0,7.38-8.95c2.68-4.25,1.79-5.37-.22-5.37s-1.79-.67-1.79-.67l1.12-2.91c1.12-2.91-1.35-2.24-2.69-1.79a9.82,9.82,0,0,1-3.35.67c-.68-.08,1.57-2.93,2.46-5.39s1.23-5.35.11-4.9a9.91,9.91,0,0,1-3.13.67c-1,.06.9-2.18,1.57-5.54s.58-6.13-1-4.78c-1.25,1.09-1.69,1.39-2.47,1.45s-.33-2.85-.11-6.21-1.1-3.06-2.07-1.81l0,.07c-.38.56-.43.68-1.52,2.29-3.19,4.66-8.63,9-11.76,12.75-5.18,6.29-8.86,11.28-9.62,14.32-.44,1.77-2.34,3.66-4.74,7.23a2,2,0,0,0-1.11-.35,2.67,2.67,0,0,1-1.75-.52,1.49,1.49,0,0,1-.35-1.15,5.77,5.77,0,0,1,.59-3,6.13,6.13,0,0,0,.7-2.92,8.27,8.27,0,0,0-1.22-3.87,6.28,6.28,0,0,1-1-2.84c0-4.56-.43-9.4-3.57-13.94a22.08,22.08,0,0,0-5-5,9.75,9.75,0,0,1-1.27-1.1,10.26,10.26,0,0,0-.75-3,6.89,6.89,0,0,1-.54-1.88,6.11,6.11,0,0,0-1.23-3.3,4.23,4.23,0,0,1-.88-2.09,4.05,4.05,0,0,1,.31-1.7,7,7,0,0,0,.49-2.65,8.79,8.79,0,0,0-.74-3.15,6.74,6.74,0,0,1-.61-2.47,7.4,7.4,0,0,0-1.66-4.65l-.36-.54c-.06-2.84-1.79-5.82-4.95-5.84s-4.92,3-5,5.84l-.36.54A7.4,7.4,0,0,0,301,93.34a6.76,6.76,0,0,1-.62,2.47,8.79,8.79,0,0,0-.74,3.15,7.17,7.17,0,0,0,.49,2.65,4.05,4.05,0,0,1,.31,1.7,4.23,4.23,0,0,1-.88,2.09,6.11,6.11,0,0,0-1.23,3.3,6.55,6.55,0,0,1-.54,1.88,10.26,10.26,0,0,0-.75,3,9.11,9.11,0,0,1-1.27,1.1,22.08,22.08,0,0,0-5,5c-3.14,4.54-3.57,9.38-3.57,13.94a6.16,6.16,0,0,1-1,2.84,8.27,8.27,0,0,0-1.22,3.87,6.13,6.13,0,0,0,.7,2.92,5.67,5.67,0,0,1,.59,3c0,.8-.27,1.07-.36,1.15a2.75,2.75,0,0,1-1.79.52,2,2,0,0,0-1.13.33c-2.4-3.56-4.3-5.45-4.74-7.22-.76-3-4.45-8-9.62-14.32-3.14-3.8-8.28-8.06-11.41-12.75-3.61-5.42-3.81-1.57-4,.89a19.51,19.51,0,0,0,0,4l-1.57-1.12c-1.56-1.12-1.81,1.34-1.56,3.58.22,2,.44,4.47.44,4.47l-1.79-1.56c-1.78-1.57-1.56,3.58-.89,5.81a29.14,29.14,0,0,0,2,4.7s-1.79-.22-2.91-.22-2.23.45-2,1.79c.33,2,.9,4.47.9,4.47s-1.35-.22-2.47-.44-1.07,2.27.27,4.73a37.44,37.44,0,0,0,2.87,4.44,5.3,5.3,0,0,1-1.79.67c-1.12.22-2,.9-1.35,2s.9,2.24,4.93,5.37a53.42,53.42,0,0,0,6.48,4.48,13.38,13.38,0,0,0-1.78,1.12c-.9.67-.9,1.34,1.11,3.13s2.24,2.68,2.24,2.68-1.12.9-2,1.57a1.83,1.83,0,0,0-.23,2.69,29.08,29.08,0,0,0,2.69,2.68l-1.12.67-.21.13-27.87,0v-7.55h-9.53l-22.63-15.19-1.09.7-22.77,14.49H159.32v12.27l8.76,7.25c0,1.46-.05,20.65-.07,27H148.07v14.55s7.34,11.21,7.93,12.13c0,1.18.21,172.38.21,172.38L308,529.21,460,415V242.34l6.35-12.25V215.77Zm-103.29-35,30.73,0v-4.52h7.64l21.11-12.91L439,176.19h11.32v6.5L444,188.43v27.34H352.43v-5.21l-2.74-4.11H338.94l-.24-.93s3.16.7,4.28-.42.41-3.83.41-3.83a16.09,16.09,0,0,0,4-1.12c1.12-.67-.67-2-.67-2l2-.22c2-.23,3.36-1.35,3.58-2s-1.34-2-1.34-2l2.46-.67c2.46-.67,3.13-1.12,3.36-1.79s-1.57-2.46-1.57-2.46l2-.45a5.42,5.42,0,0,0,3.81-2.91c.22-.89-2.46-3.58-2.46-3.58A21.58,21.58,0,0,0,361.07,180.73ZM276.1,167a7.22,7.22,0,0,1-3.87.37,5.21,5.21,0,0,1-3.13-3.5c0-.75,1.38-.75,4-.12S276.86,166.76,276.1,167Zm.38,3.12c.87.63.25,1.63,1.37,2.13.57.25-.25,1.62-2.5,1.37s-2.87-1.12-3.62-1.25.62-1.37,1.5-1.75S275.6,169.48,276.48,170.1Zm-6.09,7.13c.24.47-1.08,1.08-1,1.58s1.17.92,1.17,1.25-3.25.83-5.75.92-7.33-1.5-7.17-2.34,2.84-1.25,5.67-1.41S270.06,176.56,270.39,177.23Zm-5.91,6.58c2-.5,4.16-.92,6.5-1.58s3.75-1.09,4.25-.5,0,1.58-1.59,3a12.71,12.71,0,0,1-7.5,2.58c-2.66,0-5.41-.75-5.41-1.42S262.48,184.31,264.48,183.81Zm1.5,5.75a12.21,12.21,0,0,0,5-.75c1.91-.75,3-1.58,4.33-1.08s2.83.33,3,.75-.17,1.33-1.58,2.08-5.34,2.83-8,2.83-6.09-1.33-6.09-1.83S264.31,189.56,266,189.56Zm3.66,6.08a16.5,16.5,0,0,0,4.59-1.5,7.29,7.29,0,0,1,5.5-.5c1.58.59,1.91.09,2.25.59s-1.25,2.16-3.59,3.08-5.58.17-8,.42-3.59.84-3.66.5C266.48,197,268.39,195.81,269.64,195.64Zm6.17,4.84c2.25-1,3.17-.34,4.58-1.25s1.42-1.25,2.34-1.17a1.37,1.37,0,0,1,1.16.58,9.28,9.28,0,0,1-3.41,3.42c-2.42,1.42-7.5,1-7.5,1A5.2,5.2,0,0,1,275.81,200.48Zm13.92-7.75a6.23,6.23,0,0,1-2.88,2.12c-1.12.5-2.5.88-2.25-.37s1.38-1.63,2.13-2.75,1.62-1.5,2.12-1.38A1.72,1.72,0,0,1,289.73,192.73Zm1.75,8.91a11,11,0,0,1,2.25-.25s.16.75-1,1.75-2.84,2.75-3.92,2.92-1.33,0-1.33,0a6.33,6.33,0,0,1,1.16-2.25C289.31,203.23,290.48,201.89,291.48,201.64Zm-6.42-.58c1.33-1.75,1.58-2.25,2.33-2.5s.75-.08.75-.08a4,4,0,0,1-.58,2.91c-.92,1.17-3.75,4.42-5.42,5a10.63,10.63,0,0,1-4.25.17s.42-1.33,2.92-2.5S283.73,202.81,285.06,201.06Zm-6.34,9.39h7l-5.28,5.3h-6.89Zm-7.94,5.3h-2v-4c.27-.4.5-.74.88-1.32H276Zm17.73-5.3h7.13l-4.65,5.3h-7.76Zm5.38-4.31s.92-1.66,1.25-1.75,1.59-.16,1.59-.16a4.54,4.54,0,0,1-1.25,1.83A1.7,1.7,0,0,1,293.89,206.14Zm4.39,4.31h6.78l-4.54,5.3h-6.89Zm7.49-4c0-14.12,0-48.74,0-48.74H299.2v5.13h-3.54v-5.13h-4.13v-5.55h4.13v-3h3.5v3h6.55v-9.25h-5.12v-4.34h5.14v-6h4.5v6h5.13v4.34h-5.12v9.25h6.55v-3h3.5v3h4.13v5.55h-4.13v5.13h-3.53v-5.13h-6.53s0,34.64-.05,48.75Zm8.94-4.9c.6.9,1.62,1.85.9,2.09s-.6.2-1.2-.2a1.53,1.53,0,0,1-.89-1.59C313.62,201,314.12,200.61,314.71,201.51Zm-11.15-1.16c-.23,1.79-2.91,2.69-2.91,2.69a6.47,6.47,0,0,1,.89-2.47C302.21,199.68,303.56,200.35,303.56,200.35Zm-1.35,4.25a3.78,3.78,0,0,1-.32,1.88c-.41.83-2.66.75-2.66.75a6.84,6.84,0,0,1,1-2A2.26,2.26,0,0,1,302.21,204.6Zm5.46,5.85h.61l4.54,5.3h-9.69Zm3.22,0h6.78l4.65,5.3h-6.89Zm5.82-4.45a1,1,0,0,1,1.29,1.09c-.1.9-.7.4-1,0S316.21,206.1,316.71,206Zm3.6,4.45h7.13l5.28,5.3H325Zm.68-4.95c.1-.3.3-.1.9,0s.3.7,1,1.59-1,.3-1.5-.1A1.48,1.48,0,0,1,321,205.5Zm2.89-3.19c0-.6,2.1,0,3.09.5s.31,1,.31,2.79-.7.8-2-.5S323.88,203,323.88,202.31Zm23.6-32.54a4.32,4.32,0,0,1-3.3,1.25c-.54,0-.7-.67-.75-1.21s-.87-.87-.79-1.29.75-.33,1.92-.29a5.78,5.78,0,0,0,2.75-.5C348.39,167.31,348.35,168.69,347.48,169.77Zm3,7.91a17.87,17.87,0,0,1,4.29.3c2.09.4,4,1,3.89,1.4s-2.6,1.49-5.89,1.49-5-2.53-4.88-3.19C348,177.19,349.11,177.68,350.5,177.68Zm.4,5.19c2.89.4,4.79.7,5.88,1.29s1.5.6.8,1.3-4.49,1.6-6.88,1-5.38-3.09-5.38-3.09C345.22,182.57,348,182.47,350.9,182.87Zm-.5,6.08c2.3,1,3.39,1.4,2.59,1.89s-3.28,1.7-7.07,0a5.05,5.05,0,0,1-3-3.39c-.1-.39.39-.59,1.19-.69s.5-1.3,1.1-.7A23.73,23.73,0,0,0,350.4,189Zm-11.46,7.78c-1.1-.8-2.1-2.73-1.7-3.39.3-.5,1.1,0,1.7,0s1.79,2.29,3,3.48,2,1.7,1.89,2-.6.6-1.69.3S340,197.52,338.94,196.73Zm2,6.48c-.16.22-2.15-.54-3.59-1.4a16.71,16.71,0,0,1-2.59-2c-.79-.8-.7-1.6-.1-1.9s.19-1.22.6-1.39c.7-.3,1.59,1.59,3.29,2.69S341.23,202.81,340.93,203.21Zm1.2-9.67c-1.2-1.2-1.25-2.3-.9-3,.2-.39.8.2,2.19,1.3a9.13,9.13,0,0,0,3.69,1.89c1,.2,2.19.7,2,1.2s-.4.6-2.8.7S343.32,194.73,342.13,193.54Zm2.22-13.31a3.78,3.78,0,0,1-2.83,1.33c-1.58.21-2.12.15-2.63-.21s-.37-1,.42-1.5,2.12.21,3.92-.46S344.93,179.52,344.35,180.23Zm-3.83,4.66c1.25.09-.09,1-1.29,1.3s-2.09.08-2.42-.34.33-1.09,1-1.33S339.27,184.81,340.52,184.89Zm-2.25,4.34c2,.41,0,1.29-1.84,1.66s-2.25.17-3-.16a.76.76,0,0,1,0-1.42c.8-.42.09-1,.92-1.25S336.31,188.81,338.27,189.23Zm-3.12,14c1.1,1.79,1.1,2.89.7,3.19s-1.7-.3-3.39-1.2a8.92,8.92,0,0,1-3.39-3.39c-.3-.7.3-1.2.6-1.9s-.62-1.49.1-1.49S334.05,201.41,335.15,203.21Zm-3.63-7.36c-1.38.13-2.75-.94-3.5-1.62-.5-.46,0-1.22,1-1.17.83,0,.42-.62,1.33-.92s1,1.25,2,2S332.89,195.73,331.52,195.85Zm-1.29,14.6h7l5.18,5.3h-6.9Zm9.77,0h7.55l.88,1.32v4h-3.26Zm14.39-35.06a6.89,6.89,0,0,1-5.18-1.79c-.7-.7,1.29-1.2,2.89-1.7s2.49.6,4.28.4,3.49.3,3.39,1S357.48,175.29,354.39,175.39Zm3.09-5.28c-2.49,0-6.74-.91-6.58-1.7.1-.5,1.1-1,3.49-1s3.09-.5,4.69-.5,3.38.5,3.38,1S360,170.11,357.48,170.11Zm4.59-7.78a15.16,15.16,0,0,1-6.38,2.69c-2.4.5-5.09.41-5.09-.2,0-.39.2-1.09,2.29-2.39s3.09-1.09,5.49-1.79,4.18-1,4.78-.7S363.86,160.94,362.07,162.33Zm8-16.05c.3.5-.9,2.49-3.19,5.29s-7.18,5.58-10.17,6.78-6.49,1.22-6.88,1,0-1.49,1-2.29,4-1.8,7.08-3.39,7.38-5.38,8.67-6.08S369.74,145.78,370,146.28Zm-2.49-5.78c.4.2-.8,4.49-7.48,9.37-6.1,4.46-10.94,4.59-10.86,3.89.1-.9,3.68-3,6.28-4.69s5.08-4.88,7.17-5.88S367.15,140.3,367.55,140.5Zm-3.19-8.57c1.39-.3-1.7,5.88-4.79,10.07s-7.9,7.26-8.47,7.07c-.3-.1,0-.49,0-1s-.7-.7-.6-1.3,4.49-4.68,6.08-6.48S363,132.23,364.36,131.93Zm-2-8.18c.59-.1-2.7,8.68-5,12.07s-6.48,8-7.38,8.47-1-.1-.79-1.1.4-1.59-.7-2.09,2.49-2.89,4.38-5.28a52.61,52.61,0,0,0,5-7.08C360,125.28,361.77,123.85,362.37,123.75Zm-14.36,7a52.8,52.8,0,0,1,7-7.95c1.7-1.6,4.37-4.61,4.56-4.51s0,2.39-1.59,5.48a78.51,78.51,0,0,1-6.88,10.57c-1.3,1.4-4.46,4.53-5,4.89-1.2.79-.6-.8-1-2.3S345.82,133.82,348,130.73Zm-14.74,43.58c0-6.87-3.36-9.59-1.81-15.7,1.07-4.22,4.92-8.66,5.58-7.82.5.62.36,1.25-.28,2.24s.65,1.8,1.12.72a21.64,21.64,0,0,1,3.25-5.64c1.26-1.34,4.69-5.32,5.38-4,.25.45-1,3.32-1.89,4.09-1.17,1-3.86,3.64-1.69,4.08.41.09,1.29-.49,2.09-1.09s2.59-1.5,3.19-1.2,0,1.3-.8,2.69-2.09,1.59-3.19,1.9-2.29,2-.45,1.88c1.62-.08,3.77-.51,4.14.11s-1.17,2.26-2.29,3.39-2.46,1.53-3.29.6-1.62-.06-1.7.7c-.1,1-2.51,2.87-1.78,3.43s1.24-.4,1.92-.88a4.2,4.2,0,0,1,2.44-1.12A25.92,25.92,0,0,0,348,162c1.16-.32,1.64.4.56,1.6s-2.4,2.76-4.08,2.48-1.32-1.52-2-1.44-.72,1.2-1.72,2.52-1.93,2.65-1,2.85,2.1-.26,1.6,1a16.79,16.79,0,0,1-2.06,3.27c-.42.5,1.16.79,2,.17s1.41-1.71,3-1.21,3.25-.25,2,1.54a5.57,5.57,0,0,1-4.17,2.71c-1.33,0-.58-2-1.87-1.71s-.75,1-2,2.25-.79,3.5-2,4.29-2,1.58-2,2.88-1,1.29-1.92,1.66-.25,2.13-1.17,2.67-2.58.17-3.25.83,0,2.17-1.2,2.79-2.75,1.21-3.38,1.5,0,1.42,1.08,1.38,2.84,1.83,2.84,2.54-.34,1.13-2.09,1.08-2.16-3.29-3.91-3.29-1.71.46-1,2-.13,1.92.21,3-.38,2.08-1.38,1.42a10.14,10.14,0,0,1-3.71-7.29,9.75,9.75,0,0,1,5.85-9.17C325.61,184.4,333.27,181.19,333.27,174.31ZM285.5,152a13.56,13.56,0,0,1,1.62-.67,5.13,5.13,0,0,0,1.62-1,5.4,5.4,0,0,0,1.57-4,9.62,9.62,0,0,0-1-4.77,2.19,2.19,0,0,1-.31-1.19,5,5,0,0,1,.77-2,9.81,9.81,0,0,0,1.41-4.69c0-3.64.22-7.85,2.86-11.66a18.31,18.31,0,0,1,4.16-4.17c1.42-1.11,2.76-2.16,2.76-3.93a6.63,6.63,0,0,1,.53-1.88,9.25,9.25,0,0,0,.8-3.3,4.49,4.49,0,0,1,.62-1.17,7.74,7.74,0,0,0,1.49-4.22,8.06,8.06,0,0,0-.54-3.07,3,3,0,0,1-.26-1.28,5.38,5.38,0,0,1,.48-1.72,10.55,10.55,0,0,0,.88-3.9,3.59,3.59,0,0,1,.9-2.32,4.51,4.51,0,0,0,1.1-2.71c0-.44.23-2,1-2s1,1.56,1,2A4.51,4.51,0,0,0,310,91a3.54,3.54,0,0,1,.91,2.32,10.56,10.56,0,0,0,.87,3.9,5.38,5.38,0,0,1,.48,1.72,3.11,3.11,0,0,1-.25,1.28,8,8,0,0,0-.55,3.07,7.74,7.74,0,0,0,1.5,4.22,4.72,4.72,0,0,1,.61,1.17,9.47,9.47,0,0,0,.8,3.3,6.7,6.7,0,0,1,.54,1.88c0,1.77,1.34,2.82,2.75,3.93a18.11,18.11,0,0,1,4.16,4.17c2.64,3.81,2.86,8,2.86,11.66a9.81,9.81,0,0,0,1.41,4.69,5,5,0,0,1,.77,2,2.19,2.19,0,0,1-.31,1.19,9.62,9.62,0,0,0-1,4.77,5.42,5.42,0,0,0,1.53,4,5.35,5.35,0,0,0,1.59,1.05,11.64,11.64,0,0,0,2.17.71s-1.6,2.9-1.92,3.58c-4.27,9.17,3.65,15.08-.38,22-3,5.08-13.12,4.84-16.4,11.9,0,0,0-28.85,0-29.87h2.54v5.13h7.53v-5.13h4.13v-9.56h-4.13v-3h-7.5v3h-2.55v-5.25h5.12v-8.34h-5.13v-6h-8.5v6h-5.14v8.34h5.12v5.25h-2.55v-3h-7.5v3h-4.13v9.55h4.13v5.13h7.54v-5.13h2.53c0,1,0,29.84,0,29.84-3.41-6.85-13-6.85-16-11.88-4-6.94,3.84-12.82-.38-22A20.74,20.74,0,0,0,285.5,152Zm-.34,6.23c1.55,6.12-1.81,8.83-1.81,15.71s7.66,10.09,12,12a9.71,9.71,0,0,1,5.85,9.16c-.13,3-3.39,6-4.38,5.88-.75-.13-.37-.88,0-2.63s1-1.62,2-2.5-.5-1-1.25-1.12-1-.38-2-1.13-1.5,0-1.12,1,1.5,1.63.5,2-1.25,1.25-1.88,2.13-1.87,1.12-2.25.75-.12-2.63.25-4.13,1.25-2.87,2.5-2.75,1.38.13,1.25-.75-1.5-.75-2.87-.87-1.13-1.25-1.13-2.13-2.75-.5-3.62-.87-1.63-.25-1.5.62.25.63-.88,1.88-3.5,1.25-4,.75.25-1.75.75-2.63a5.33,5.33,0,0,1,2.75-2.12c1.13-.38,1.38-1,.5-1.38s-1.12-1.12-1.75-1.87a.8.8,0,0,0-1.5.5,2,2,0,0,1-1.5,2.25c-1.37.5-3.75-.5-3.75-1.13s1.38-1.12,2.25-2.37,2.25-.63,3.38-.63.87-1,.25-1.37-.88-.75-1.63-2-1.37-1.13-1.37-.38-.63,1-2,1.13-2.38.25-2.87-.63c-.31-.55,1.12-2,2.87-2.5a3.41,3.41,0,0,1,3,.38c.62.25,1.12.62,1.62,0s-.37-1.5-1.12-2a1.58,1.58,0,0,1-.38-2.13c.38-.75.25-1.37-.62-1.5S278.6,170,278.1,169s.13-.75.75-1.63.13-1.62-.75-1.87-1-1.38-1.12-2.13-.13-1.87-1.38-1.87a5.2,5.2,0,0,1-3.75-1.5c-1.12-1.13-2-3-1.62-3.63s1-.25,2.62-.25a3,3,0,0,1,3,2c.63,1.25.88,2,1.63,2.13s.62-1,.62-1.63-.37-1-.75-1.62.38-1.75.13-2.38-2.25-.37-3.13-1.12A5.4,5.4,0,0,1,273,150.1c.12-.5,1.12-.5,2-.25s.62,1,1.62,1.25,1,1.25,1.5,2.38.38,2.37,1.25,2.37.75.75.88,1.75-.13,1.13-.75,1.75-.13,2.13.5,3.25,1.5,1.13,2,.88.12-1.25-.25-2,.25-.75.75-.75,1.12-1.25.5-1.5-.88-1-.63-2.13-1-1.5-1.62-2.5-1.13-2.25-.63-2.87C280.77,150.89,284.09,154.06,285.16,158.27Zm-8.43-12.17c.5-.37,1.37.38,2.25,1.25s1.87,2.25,1.25,2.13-.92.48-1.13,1-.62-.25-1.37-1.25S276.23,146.48,276.73,146.1Zm-14.25-22c3.58,3.84,5.83,6.25,8.75,9.84s5.52,8.62,4.83,9.08-3.17-2.25-5.42-5.67-6.08-7.25-9.33-10.5-4.92-7.75-4.83-8.91S258.89,120.31,262.48,124.14Zm-9.17-.58c.25-.83,1.42.33,5.58,3.83a60.72,60.72,0,0,1,9.84,10.34c3.41,4.33,6.13,9.26,5.5,9.58-.84.42-3.42-3.17-6.59-6.75a58.14,58.14,0,0,0-8.75-8.08C254.81,129.14,253.06,124.39,253.31,123.56Zm.75,8.92c2.17,1.58,2.75,1.5,7.08,4.33a22.61,22.61,0,0,1,7.84,8.58c1.41,2.59,2,4.11,1.58,4.59s-1.33-.67-4.08-3.92-7.67-6.33-10.09-7.75-5.91-7.17-6-7.92S251.89,130.89,254.06,132.48Zm-6.42,4.91c.59-.25,1.74-.65,5,1.09a46.51,46.51,0,0,1,12.17,8.75c4.25,4.33,5.08,6.56,4.5,6.66-1.42.25-3.58-2.75-7.17-5.25s-8.08-3.91-10.66-5.5S247.06,137.64,247.64,137.39Zm-1.41,6.25c.66-.16,3.75,1.75,7.25,3.17a54.3,54.3,0,0,1,10.66,5.92c2.67,2,4.42,6.25,4,6.58s-4.91-3.92-8-5.67-6.91-2.66-9.75-4.25S245.56,143.81,246.23,143.64ZM268,167.73c-.17.5-2.17.75-5.59-.17s-5.75-2.08-5.66-2.67,3.66-1,6.08-.5,3.17,0,3.83.75.34,1.25.84,1.59S268.07,167.44,268,167.73Zm-11.75-8.5c-5.84-2.09-9.5-6-9.25-6.5s4.66-.75,10.58,2.25,8.48,5.82,8.08,6.33C265.06,162.06,262.06,161.31,256.23,159.23Zm.5,13c0-.84,2.83-1.84,5.33-1.84s6.33,0,6.42.67c.06.5-.67.92-.5,1.5s.91,1.33.75,1.75-2.17.42-5.25.25S256.73,173.06,256.73,172.23Zm-93.45,7.44v-6.45h9.47L195.4,158.8l21.47,14.42h6.78v7.55l32.3,0a26.94,26.94,0,0,0,4,1.73,12.86,12.86,0,0,1-2.24,2.46c-1.34,1.12,0,2.46,1.12,2.68s2,1.79,2,1.79l-.68.9c-.67.89-1.11,2,.23,2.91a36.43,36.43,0,0,0,4.92,2.24s-.45,1.78-.89,2.9,0,2.24,2,2.24a36.28,36.28,0,0,0,5.37-.67,16.43,16.43,0,0,0-1.57,3.36c-.22,1.11.67,2,2.24,2h2.68l-.37,1.15h-7.27l-2.74,4.11v5.21H172l.07-28.85Zm299.08,49.44L456,241.36V413L308,524.21,160.21,412.84c0-2-.21-171.59-.21-171.59l-7.93-12.12v-9.36H462.36Z"/>
        <path class="cls-3" d="M328.85,186.1a2.63,2.63,0,0,0,2.54-.62,2.36,2.36,0,0,0,.84-2.17c-.05-.62-.67-.54-.88-.21a4.61,4.61,0,0,1-1,1.38,2.84,2.84,0,0,1-1.5.66A.48.48,0,0,0,328.85,186.1Z"/>
        <path class="cls-3" d="M320.35,194.39a3.38,3.38,0,0,0,3.17-1.41c.79-1.34.5-1.88,1-2.17s2-.5,2.37-2.29-.54-3.08-1.16-1.54-1.13,2.16-2.17,2.46-.71,1.2-1.21,2.25a3.18,3.18,0,0,1-2.08,1.66C319.52,193.6,319.73,194.39,320.35,194.39Z"/>
        <path class="cls-3" d="M337.59,158.88a3.4,3.4,0,0,0,3.2-2.83c.08-1.43-.32-3.12-.87-1.77a8.9,8.9,0,0,1-1.09,2.33,3.56,3.56,0,0,1-1.75,1.35C336.39,158.33,336.4,159,337.59,158.88Z"/>
        <path class="cls-3" d="M334.21,266.19c1.81,1.81,3.62-.6,6.34-2.42,3.62-3.62,3.62-7.55,3-13.89,0-.6-2.72-2.11-2.72-2.11s-.3,5.43-2.72,9.06c-1.2,1.81-3.32,5.13-6.34,6.34C330.58,263.47,333.3,265.29,334.21,266.19Z"/>
        <path class="cls-3" d="M446.05,227.8H168V408.85L308,514.91,448.05,408.85v-181ZM250.25,255h3.32c1.51-1.21-2.11-3-.9-8.16.6-2.41,4.78-9.35,5.43-6.34,0,0,3.62,4.23,1.51,6.95-3,3.92-5.74,7.85-2.42,7.85a40.59,40.59,0,0,0,6,0l6.35,6c1.2,3.32,8.15,3.62,12.38,2.11,3-.9,2.72-5.13,6-7.85,2.11-1.81,6.64-2.72,7.85-3.32,1.81-.91.91,0,4.53-3.32,0,0,3.74-.08,4.53-1.82,1.32-.53,1.51-3,1.51-3.32,1.21-3,3-3.32,3-3.32a14.2,14.2,0,0,1,2.72,3.32c.57,1.22.3,3,.91,3.32,0,1.82,3.66.69,5.43,2.12,1.18.94,1.51,2.41,2.42,3,1.81,1.51,5.44,1.21,6.64,3,.61,1.21,2.42,5.13,2.42,5.13a70.21,70.21,0,0,0,5.74-7.25A29.9,29.9,0,0,0,340,242.33a10.53,10.53,0,0,1,7.85,3c2.25,2.14,2.89,4.17,3.32,7.25s-.1,4.7-.91,7.55A14.83,14.83,0,0,1,348.4,265c-2.35,3.65-4.83,4.84-9.36,6-3.32.61-3.32,2.42-2.42,4.53.61,1.51-3.62,1.21-3.62-.3a14.72,14.72,0,0,0-2.11.91s-4.84,4.53-7.25,5.43c-4.23,1.82-12.08-.9-10,0,.61.31-.3,2.42,0,2.42,6.34,2.72,3.93,1.21,7.25,3,2.42,1.21,3,2.72,2.11,4.23-1.21,2.11-10,3.62-13.89,3.92-3.62,0-13.89-2.11-15.4-4.53-1.51-2.11,2.11-3.32,3.32-3.92.6-.61,5.44-1.81,5.44-2.42a12.82,12.82,0,0,1,.2-2.5c-10.47,3.71-17.72-5.65-21.95-7.77-3.93-1.81-6.34,1.21-10.57-.9-1.81-.61-4.83-3.93-6-5.14-2.42-2.41-2.33-5.67-5.44-7.55-2.52-1.52-5.42.2-7.24-2.11C250.6,257.26,250,255.92,250.25,255Zm1.81,212.5L172,406.86V231.8h1.15l78.92,60.48Zm107.81,3.09L308,509.89l-51.93-39.34V295.34l51.43,36.48,52.38-38.58Zm84.18-63.75-80.18,60.72V290.44h-.2l79.61-58.64h.77Z"/>
        <circle class="cls-3" cx="57.31" cy="344.98" r="9.67"/>
        <path class="cls-3" d="M551,345a9.67,9.67,0,1,1,9.67,9.66A9.67,9.67,0,0,1,551,345Z"/>
        <path class="cls-3" d="M83.77,239.94c1.46,4.23,1,7.79.1,12.12-1.28,5.86-4.3,12.51-8.94,16.52-4.9,4.24-11.38,6.78-17.83,5.69C47.94,272.73,41.83,268.16,39,262s-2-14.48-.59-20.88a41.53,41.53,0,0,1,3.79-9.78c.92-1.69,1.43-2.21,3.37-2.13,0,0,5.24,2.3,5.87,2.56,1,.39.72,2,.31,2.58-1.51,2.24-2.42.15-4.7,1.13-1.62.7-3.16,2.69-4,6.41-.95,4.4-.71,8.91,2.27,12.21s7.73,5.52,12.12,6.47a20.57,20.57,0,0,0,12.22-1.06,13.3,13.3,0,0,0,8.69-9.89c.56-2.59.86-8.2-.3-10.55S83,237.62,83.77,239.94Z"/>
        <path class="cls-3" d="M89.05,203.94c3.69,1.61,5.35,2.74,6.74.39.45-.77,1.38-1.69,2.51-1.19a1.74,1.74,0,0,1,1,2.24c-1.42,3.24-2.65,5.49-4.07,8.73-1.31,3-2.07,5.24-3.39,8.24a2,2,0,0,1-2.51.9c-1-.44-.87-1.82-.7-2.63.55-2.59-.32-3.83-5.45-5.52L61,205.39c-2.74-1.75-4.65-1.85-6.24,0-.55.63-1.72,1.78-2.78,1.31a1.72,1.72,0,0,1-.84-2.36c1.42-3.25,2.65-5.4,4.07-8.65,1.31-3,2.37-6.1,3.66-9a1.7,1.7,0,0,1,2.37-.75,2.16,2.16,0,0,1,.94,2.49c-.8,3.89.51,4,4.7,5.84Z"/>
        <path class="cls-3" d="M529.22,207.26c-3.61,1.76-5.55,2.3-4.66,4.87.29.85.39,2.15-.71,2.69a1.74,1.74,0,0,1-2.36-.69c-1.55-3.18-2.47-5.57-4-8.75-1.43-2.95-2.65-5-4.08-7.92a2,2,0,0,1,.94-2.5c1-.48,1.95.51,2.46,1.17,1.61,2.1,3.13,2.24,7.73-.57L546.28,185c3.11-.95,4.42-2.34,4.05-4.75-.13-.82-.24-2.46.8-3a1.73,1.73,0,0,1,2.35.9c1.55,3.19,2.4,5.51,3.95,8.69,1.43,2.94,3.11,5.77,4.52,8.65a1.71,1.71,0,0,1-1,2.29,2.15,2.15,0,0,1-2.5-.9c-2.45-3.13-3.39-2.21-7.49-.21Z"/>
        <path class="cls-3" d="M113.13,163.65c3.32,2.28,4.52,2.55,6.67.25.61-.65,2-2.1,3.29-.74,1.49,1.52.47,3.42,0,4.15-2,2.92-4,4.86-6,7.78-1.85,2.69-3.33,5.18-5.19,7.88-.54.78-1.86,2.44-3.87,1.41a2,2,0,0,1-.85-3c1.67-3.27,2.26-4.27-1.39-6.78l-21.5-15.84c-1.61-1-2.4-1.6-3.48,0-2.63,3.82-3.42,4-2.56,5.78.43.88,2.69,2.05,1.12,4.26-1.19,1.69-3.16.54-3.48.16l-5-3.67c-2-1.8,1.67-4.92,2.75-6.49l16.13-22c1.2-1.74,2-4.72,3.8-3.44l5.67,4.2a2.5,2.5,0,0,1,.45,3.29,2,2,0,0,1-2.52.75c-2.69-1.08-3.57-.71-6.45,3.53-1,1.46-.28,2.09,1.18,3.09Z"/>
        <path class="cls-3" d="M505.15,165.61c-3.17,2.47-3.79,3.54-2.25,6.28.44.78,1.42,2.49-.28,3.36-1.9,1-3.41-.59-3.95-1.29-2.18-2.8-3.44-5.23-5.61-8-2-2.58-3.94-4.74-5.95-7.33-.58-.75-1.76-2.51-.18-4.12a2,2,0,0,1,3.12.1c2.61,2.58,3.38,3.45,6.88.72l21.59-15.72c1.46-1.22,2.25-1.8,1.08-3.3-2.85-3.66-2.81-4.48-4.73-4.19-1,.14-2.77,1.94-4.4-.22-1.25-1.64.43-3.18.89-3.36l5-3.64c2.33-1.39,4.19,3.07,5.36,4.58l7.44,11,8.57,10.69c1.29,1.66,3.67,3.9,1.9,5.26l-5.4,3.89a2.5,2.5,0,0,1-3.27-.56,2,2,0,0,1,0-2.63c1.85-2.24,1.75-3.19-1.42-7.22-1.09-1.39-1.9-.9-3.3.19Z"/>
        <path class="cls-3" d="M136,99.89c-.47-2.72-1-5.2-1.47-8.61-.18-1.35,2.38-3.51,2.64-3.74,1.52-1.38,3.68-1.23,3.85,1.38.15,2.29.83,10.09,1.15,12.28,0,0,1,9.48,2,10.74s8.25,9.45,8.25,9.45c2.7,3,3.62,3.31,5.59,2.08.76-.48,2.31-1.43,3.46,0a2.27,2.27,0,0,1-.23,3.18c-2.62,2.38-4.8,4.18-7.43,6.56-2.42,2.2-4.66,4.6-7.09,6.79a2.56,2.56,0,0,1-3.08-.36,2.78,2.78,0,0,1-.13-3.07c2.83-3.57,1.9-4.29-1.07-7.58l-7.14-7.59L121,117.63a77.8,77.8,0,0,0-8.79-1c-1.11,0-2,2.11-3.58.68-1-.86-.41-2.11.22-2.83,1.76-2,2-2.63,4-4.9a50.28,50.28,0,0,1,3.6-4c.78-.67,3.87-.36,8.31.46s12.85,3.45,12.85,3.45Z"/>
        <path class="cls-3" d="M278.12,46.46c.18,2,.44,3.09,2.82,2.87a30.88,30.88,0,0,0,5-.74c1.87-.52,4.93-1.38,5.9-.8,1.3.77,1.16,4.82-.6,5.89s-2.19.64-5.69.94l-4.38.4c-2.23.34-2,1.54-1.88,3.37l.8,7.84c.36,4,.84,4.31,2.47,5.09.81.38,2.18.45,2.39,2.09s-.57,2.19-2.65,2.5c-3.5.52-4.23.15-7.76.47-3.26.3-5.06.84-8.32,1.13a2,2,0,0,1-2.5-2c-.21-1.33,1.2-2.13,2-2.38,2.3-.75,2.32-2,1.92-6.44l-2.21-23c-.37-4.07.06-6.88-3.43-7a1.87,1.87,0,0,1-1.85-1.77,2.5,2.5,0,0,1,2.21-2.71c6.26-.4,9.61-.28,15.86-.85,4.34-.39,6.6-1.26,10.94-1.65,1.77-.16,2.43,1.57,2.61,3.47L291.75,38c.08.88-.17,1.86-1.19,1.95-2,.2-1.94-1.87-2.63-2.76-1.18-1.6-3.07-1.23-5.24-1-.81.07-3.83.36-4.59,1s-.54,1.7-.47,2.44Z"/>
        <path class="cls-3" d="M441.83,94.9c-2.23,4.14-4.62,7.93-11.73,9.4-4.8,1-9-.65-13.2-3-4-2.14-8.62-4.91-10.53-8.95-2.9-6.15-.55-9.48,1.94-14.09l8.85-16.38c2-3.65,2.86-5,1.12-6.81A3.38,3.38,0,0,1,417,51.61c.45-1.41,2.2-1.62,3.62-.73,3,1.88,4.34,2.73,7.45,4.41,2.88,1.56,5,2.5,7.77,4A2.28,2.28,0,0,1,434,63.45c-2-.89-2.73-.34-4.9,3.68L420.9,81.47c-1.33,2.46-3.83,6.36-4,8.94-.25,3.39,1,4.91,4.53,6.82,3.12,1.69,5.36,2.28,8.85,1.06,2.74-1,4.39-3.56,6-6.5l9.21-17.3c.71-1.32,1.91-3.6.68-4.49a2.76,2.76,0,0,1-.83-3.49,1.9,1.9,0,0,1,2.69-.87c1.8,1,2.6,1.7,4.4,2.68s2.66,1.14,4.46,2.11a2.54,2.54,0,0,1,.74,2.85,2.12,2.12,0,0,1-2.41,1.29,3.45,3.45,0,0,0-3.51,1.61Z"/>
        <path class="cls-3" d="M493.11,112.76c-.72.82-1.82.85-2.95-.14a2.06,2.06,0,0,1-.2-2.73c2.42-3.62,2.48-4.83-.85-7.86a5.62,5.62,0,0,0-8.3.5c-2.38,2.72-2.06,5.9-.49,8.55l1.85,3.17c3.69,6.13,5.65,11.12.44,17.06-2.84,3.23-6.86,4.29-11.07,4.23-4.6-.14-9.37-2.56-12.8-5.57-2.46-2.16-5.94-6-7.2-9-.92-2.26-1.55-3.31-.07-5l5.39-4.62c.71-.82,1.37-1.24,2.84.25s.85,2.14.08,3.08c-1.49,1.8-2.46,2.24-2.31,4.52.22,2.64,2.13,4.42,4,6.06,2.93,2.53,5.84,2.4,9.56-.82,3.89-3.38-.15-8.79-2.39-12.76-2.91-5.14-3.89-10.38,2-16.69,6-6.49,15.15-3.51,21.92,3.49,1.65,1.71,4.29,4.88,5.16,7.09a3.45,3.45,0,0,1-.71,3.63Z"/>
        <path class="cls-3" d="M555.69,264.41l17.43-3.94c1.63-.62,2.94-1.89,2.8-3.47-.12-1.16.42-2,1.91-2.18a2,2,0,0,1,2.49,1.62c.44,2,.51,3.43,1,5.43s.68,2.66,1.11,4.59a1.87,1.87,0,0,1-1.5,2.26A2.28,2.28,0,0,1,578,267.1c-.67-1.82-3-1.41-5.56-.84l-32.56,7.24c-1.86.41-2.8-.4-3.3-2.66-.37-1.67-.65-3.88.27-4.66.36-.32,23.1-28.45,23.79-29.36s.47-1.93-1.12-1.6-21.54,5-21.54,5a2.53,2.53,0,0,0-2.18,3.17,2.17,2.17,0,0,1-1.68,2.56,2.41,2.41,0,0,1-2.75-1.36c-.47-2.13-.64-2.87-1.11-5s-.9-3.24-1.36-5.3a2.69,2.69,0,0,1,1.66-2.66,2.52,2.52,0,0,1,3.28,1.85c.39,1.45,1.81,2,4.08,1.51l26.55-5.92c2.6-.57,5.22-.67,4.69-4-.17-1.08.26-1.7,1.72-2a2,2,0,0,1,2.49,1.27l2.14,9.79c.59,2.66-1.79,5-2.38,6s-17.41,22.17-18,22.74S554.94,264.57,555.69,264.41Z"/>
        <path class="cls-3" d="M243.37,57.53c-7.14-17.8-20.38-16.86-33.56-12.1-6.59,2.38-12.93,7-16,13.31a23.4,23.4,0,0,0-.71,18.46c2.28,6.31,8,12.76,14.51,14.89,5.88,2,13.83.28,19.59-1.8C240.2,85.61,249.36,72.45,243.37,57.53Zm-17,28.38c-6.69,2.89-12.16,3-19-12.74-4.62-10.57-5-20.46,3.6-23.57,10-3.6,15.16,3.08,19.87,14.71C234.77,74,234.36,82.47,226.4,85.91Z"/>
        <path class="cls-3" d="M384,79.6a20.57,20.57,0,0,1-.8-3.79l-5-35.58c-.32-2-1.07-3-3.25-3.52-2.64-.68-3.18-.56-4.66,1.38,0,0-21.14,29.59-22.4,31-1.45,1.53-2.1,2.72-3.63,2.81-.9.06-2.41-.13-2.64,1.73s1.61,2.07,2.6,2.32c2.05.52,2.28.39,4.33.91s2,.61,4.07,1.13a2.15,2.15,0,0,0,3-1.61c.57-2.29-2.71-2.1-2.44-3.91.19-1.25,1.14-2.55,2.19-4.19,1.33-1.91,2.4-2,4.71-1.38L367,68.4c2.38.6,2.22.42,2.49,2.95,0,0,.77,3.81.55,4.66-.61,2.38-4.42-.4-4.73,2.91-.24,2.63,1.78,2.74,2.71,3,3.17.81,5.09,1,8.39,1.88l6.88,1.75c.92.24,2.76.74,3.62-1.39C387.88,81.64,384.47,80.93,384,79.6ZM368.74,62.83c-.2.79-1.87.26-2.34.15l-4.2-.87c-.59-.15-2.05-.24-1.81-1.16a10.21,10.21,0,0,1,1.08-1.77s3.87-5.57,4.26-6.16,1.6-.5,1.72,0,1.11,8,1.11,8A9.79,9.79,0,0,1,368.74,62.83Z"/>
        <path class="cls-3" d="M310.78,572.9c-1.95.1-5.06-.31-7-.4s-6.26.11-8.06,0c-.53,0-1.19-.18-1.21-1.28,0-.74.81-1.07,1.26-1.15,1.31-.23,1.42-.92,1.53-3.36l.53-12.68c.11-2.25.56-3.74-1.34-4.09a1,1,0,0,1-.87-1.1,1.39,1.39,0,0,1,1.41-1.31c3.44.26,5.26.58,8.7.74,2.4.11,3.69-.19,6.09-.08,1,0,1.21,1,1.16,2.09l-.39,2.59c0,.49-.23,1-.8,1-1.1,0-.91-1.17-1.22-1.71-.52-1-1.58-.9-2.78-.95a7.48,7.48,0,0,0-2.57.18c-.39.24-.42.88-.44,1.29l-.26,3.82c0,1.12,0,1.71,1.32,1.77a17.51,17.51,0,0,0,2.81,0c1.06-.14,2.79-.38,3.27,0,.65.52.27,2.71-.77,3.17s-1.24.18-3.17.07l-2.42-.11c-1.24,0-1.23.68-1.28,1.69l-.16,4.34c-.1,2.21.62,2,1.43,1.94a28.28,28.28,0,0,0,3.92,0c1.42-.48,1.15-2.38,2.64-2.27.68,0,.55.86.4,2.7S311.92,572.84,310.78,572.9Z"/>
        <path class="cls-3" d="M136,488.08c-.76.82-1.09,1.32-.13,2.2a16.21,16.21,0,0,0,2.17,1.79c.9.57,2.38,1.5,2.5,2.1.17.82-1.53,2.26-2.62,1.94s-1.07-.66-2.48-2l-1.78-1.63c-1-.79-1.39-.27-2.07.47l-2.91,3.23c-1.49,1.63-1.44,1.93-1.15,2.88.14.48.62,1.06,0,1.75s-1.1.57-2-.16c-1.51-1.23-1.63-1.67-3.06-3s-2.21-1.75-3.53-3a1.12,1.12,0,0,1-.12-1.75c.47-.58,1.32-.3,1.71-.07,1.16.66,1.68.2,3.33-1.6l8.55-9.38c1.52-1.66,2.83-2.52,1.59-4a1,1,0,0,1,0-1.4,1.38,1.38,0,0,1,1.92-.1c2.48,2.41,3.67,3.82,6.21,6.15,1.76,1.62,2.95,2.23,4.71,3.85.72.66.26,1.57-.45,2.34l-2,1.74c-.33.36-.82.62-1.24.24-.81-.75.05-1.48.16-2.1.22-1.07-.63-1.7-1.52-2.51a7.56,7.56,0,0,0-2.09-1.51c-.45-.06-.89.41-1.16.71Z"/>
        <path class="cls-3" d="M202.92,540.8c-1.16,2.31-2.41,4.43-6.31,5.35-2.62.61-4.92-.23-7.3-1.43-2.21-1.12-4.81-2.57-5.92-4.76-1.69-3.33-.45-5.2.85-7.78l4.62-9.13c1-2,1.49-2.82.51-3.76a1.86,1.86,0,0,1-.76-1.91c.23-.79,1.19-.93,2-.46,1.68,1,2.43,1.43,4.17,2.31s2.76,1.3,4.33,2.1a1.25,1.25,0,0,1-1,2.29c-1.12-.45-1.5-.14-2.63,2.1l-4.3,8c-.69,1.37-2,3.55-2.07,5-.09,1.87.62,2.68,2.59,3.68a5.28,5.28,0,0,0,4.88.45c1.49-.57,2.36-2,3.19-3.67l4.8-9.65c.37-.74,1-2,.3-2.48a1.52,1.52,0,0,1-.51-1.91,1,1,0,0,1,1.47-.51c1,.51,1.45.89,2.46,1.4s1.48.59,2.49,1.1a1.4,1.4,0,0,1,.44,1.55,1.16,1.16,0,0,1-1.3.75,1.89,1.89,0,0,0-1.91.94Z"/>
        <path class="cls-3" d="M237.51,552l2.88-9.4a2,2,0,0,0-.89-2.28,1,1,0,0,1-.51-1.51,1.08,1.08,0,0,1,1.45-.74c1.07.33,1.78.69,2.85,1s1.46.4,2.5.73a1,1,0,0,1,.67,1.33,1.26,1.26,0,0,1-1.58,1c-1-.18-1.49,1-1.93,2.43l-5.44,17.51c-.31,1-1,1.23-2.18.85-.89-.28-2-.75-2.15-1.4-.05-.27-7.25-18.81-7.5-19.39s-.79-.75-1.07.1-3.48,11.66-3.48,11.66a1.39,1.39,0,0,0,.91,1.91,1.18,1.18,0,0,1,.76,1.5,1.32,1.32,0,0,1-1.4.94l-2.69-.84c-1.14-.36-1.78-.45-2.9-.8a1.49,1.49,0,0,1-.81-1.52,1.38,1.38,0,0,1,1.77-1.06c.8.21,1.46-.31,1.84-1.53l4.44-14.29c.44-1.4,1.11-2.68-.65-3.34-.56-.22-.74-.59-.49-1.38a1.09,1.09,0,0,1,1.28-.84l5.26,1.66c1.43.44,1.91,2.22,2.2,2.76s5.82,14.37,5.94,14.79S237.38,552.41,237.51,552Z"/>
        <path class="cls-3" d="M409.57,547.75c.25.71.55,1.39,1.35,1.35a11.81,11.81,0,0,0,2.47-.71c1.1-.32,1.8-.07,2.11.78.24.68.15,1.21-.95,1.76-.94.48-6.11,2.3-7.32,2.74-.92.33-4.89,2.24-5.71,2.53-.57.21-1.79.72-2.34-.44a1.49,1.49,0,0,1,.49-1.82c.94-.58,1.39-.84,2.14-1.28.92-.55,1.25-1.06.94-1.91L398,537.3c-.32-.86-.78-1.27-1.42-.82-.31.21-2.68,2.41-2.68,2.41a1.26,1.26,0,0,1-2.23-.27c-.72-1.44-.33-2.49.28-2.91,2.19-1.44,5-2.89,7.47-4.68,1.36-1,2.63-1.93,2.84-2,.68-.25.91,1.13,1.08,1.6Z"/>
        <path class="cls-3" d="M461.72,505.81c.49-.1,4.3-1.6,6.76,1.94,1.89,2.73,1.64,6.66,0,10.33-1.44,3.29-3,5.2-8.3,6.71-1.7.49-4.29.38-4.45-1.08-.15-1.27-.33-3.32-.36-4.53s2.35-.48,3.48-.27a8.64,8.64,0,0,0,5.26-.9,3,3,0,0,0,1.13-4.29c-1.67-2.5-3.84-1.67-5.34-.81a19.84,19.84,0,0,0-2.07,1.34c-.28.19-1.12-.63-1.31-.91a4.07,4.07,0,0,1-.23-2.71c1.26-2.57,1.45-4.23.43-5.46-1.19-1.42-2.74-.53-3.55.44a5.65,5.65,0,0,0-1.15,2.79c-.1.42-1,1.23-1.8,1.8-.62.43-1-.69-1.36-1.3a6.3,6.3,0,0,1,.06-4.25,9.73,9.73,0,0,1,3.9-4.55c1.08-.75,5.14-3.19,7.59-.39a4.46,4.46,0,0,1,.78,5.32C461.05,505.69,461.22,505.91,461.72,505.81Z"/>
        <path class="cls-3" d="M489.55,480.94c-3.72-4.12-9.68-5.27-13.36-.62-4.35,5.51-4.13,11-.86,14.63,2.51,2.77,7.71,2.68,10.6.07.65-.58,2.44-3.44,2.69-2a17.13,17.13,0,0,1-2.1,8.8c-.26.44-.78,1.16-.35,1.64s.88.42,1.6.1c1-.43,4.51-2,5.3-9C493.58,490,492.69,484.42,489.55,480.94Zm-4,9.43c-1.24,1.42-4,.76-5.53,0s-3.92-2.88-3.28-5.08c.56-1.89,4.16-3.63,8.28.42C486.89,487.53,486.6,489.14,485.52,490.37Z"/>
        <path class="cls-3" d="M167.15,501c-3.34-1.93-7.51-3-11.26-2a12.9,12.9,0,0,0-8,6.24c-1.85,3.19-2.53,7.9-1.13,11.38,1.26,3.17,4.78,5.92,7.69,7.61,6.56,3.8,15.35,3,19.5-4.81C178.9,510.06,173.81,504.82,167.15,501Zm-.5,15.54c-2.69,5.08-6.41,7.91-10.67,5.77-3.59-1.79-5.55-4.07-1.37-12.51,2.81-5.69,6.84-9.36,11.2-6.83C170.85,505.85,169.88,510.4,166.65,516.5Z"/>
        <path class="cls-3" d="M279.49,548.46c-2.67-2.31-6.59-3.12-10-3.56-2.86-.36-6.12-.87-9.22-1.41-1.62-.28-2.39-.29-2.51.59-.14,1,.33,1.26.85,1.38,1.37.34,1.16,1.39.88,3.21l-2.76,15c-.14,1.06-.49,1.17-1.1,1.35a1.13,1.13,0,0,0-1,1.09,1.27,1.27,0,0,0,1.1,1.51c.68.11,1.41.07,2,.17,3,.45,7.56,1.35,10.55,1.81,6.72,1,13.08-3.93,14.19-11.26C283.07,554.68,282.29,550.88,279.49,548.46Zm-4,9.18a11,11,0,0,1-2.54,6.2c-1.58,1.73-4.39,2.66-8,2.1-1.49-.23-1.49-.65-1.27-2.15l2.61-14.47c.46-1.9.82-1.8,3.39-1.41C275,548.71,276.18,552.9,275.45,557.64Z"/>
        <path class="cls-3" d="M352.85,557.33c-.21-3.74-1.76-7.29-5-9.09-3.08-1.71-7.08-1.7-10.53-1.42-2.87.24-6.16.4-9.3.52-1.65.06-2.52.34-2.46,1.22.08,1.06.37,1.1,1.18,1.28,1.38.3,1.47.89,1.58,2.72l.39,15.28c.08,1.07-.24,1.25-.8,1.55a1.12,1.12,0,0,0-.76,1.28,1.26,1.26,0,0,0,1.39,1.25c.68,0,1.39-.22,2-.25,3-.17,7.67-.23,10.69-.4C348.06,570.89,353.26,564.74,352.85,557.33Zm-8.27,7.32c-1.19,2-3.75,3.51-7.35,3.69-1.51.08-1.59-.33-1.69-1.84l-.41-14.7c.05-2,.43-1.94,3-2.08,5.32-.3,7.38,3.55,7.64,8.33A11.09,11.09,0,0,1,344.58,564.65Z"/>
        <path class="cls-3" d="M442.23,526.35a6.31,6.31,0,0,0-6.54-3.33c-.16,0-.69.06-.81-.13s.1-.58.17-.67a4.58,4.58,0,0,0,.21-4.82,5.86,5.86,0,0,0-5.29-2.51,9.14,9.14,0,0,0-5,2,13.8,13.8,0,0,0-4.1,5.55,5.92,5.92,0,0,0,.49,5.72,5.43,5.43,0,0,0,5.4,2.63c.14,0,.47,0,.55.14s0,.42-.13.53a5.16,5.16,0,0,0-1.39,3,7.41,7.41,0,0,0,.68,4.31c2.48,3.93,7.24,2.63,10.4.64a15.49,15.49,0,0,0,5-5.91C442.84,531.43,443.53,528.58,442.23,526.35Zm-16.85-2.92a2.87,2.87,0,0,1,1.15-3.9c1.84-1.16,3.76-.27,4.83,1.42a3.45,3.45,0,0,1,.48,2.24c0,.2,0,.6-.25.73a3.51,3.51,0,0,1-.49.13C429.43,524.35,426.5,525.2,425.38,523.43Zm10.68,12.19c-2.05,1.29-4.3,1.36-5.54-.61a4.27,4.27,0,0,1-.47-2.76,4.8,4.8,0,0,1,.77-1.65,7.57,7.57,0,0,1,1.93-.65c1.76-.21,3.54-.16,4.58,1.48A3.19,3.19,0,0,1,436.06,535.62Z"/>
        <path class="cls-5" d="M361.07,180.73H391.8v-4.53h7.64l21.11-12.9L439,176.19h11.32v6.51L444,188.43v27.35H352.43v-5.21l-2.74-4.12H338.94l-.24-.92s3.16.7,4.28-.42.41-3.83.41-3.83a16.09,16.09,0,0,0,4-1.12c1.12-.67-.67-2-.67-2l2-.23c2-.22,3.36-1.34,3.58-2s-1.34-2-1.34-2l2.46-.67c2.46-.67,3.13-1.12,3.36-1.79s-1.57-2.46-1.57-2.46l2-.45a5.41,5.41,0,0,0,3.81-2.9c.22-.9-2.46-3.58-2.46-3.58A22.63,22.63,0,0,0,361.07,180.73Z"/>
        <path class="cls-5" d="M285.5,152.05a13.56,13.56,0,0,1,1.62-.67,5.13,5.13,0,0,0,3.19-5.06,9.67,9.67,0,0,0-1-4.78,2.18,2.18,0,0,1-.31-1.18,5.08,5.08,0,0,1,.77-2,9.77,9.77,0,0,0,1.41-4.68c0-3.65.22-7.85,2.86-11.66a18.38,18.38,0,0,1,4.16-4.18c1.42-1.11,2.76-2.16,2.76-3.93a6.81,6.81,0,0,1,.53-1.88,9.2,9.2,0,0,0,.8-3.3,4.82,4.82,0,0,1,.62-1.17,7.7,7.7,0,0,0,1.49-4.21,8,8,0,0,0-.54-3.07,3,3,0,0,1-.26-1.29,5.52,5.52,0,0,1,.48-1.72,10.45,10.45,0,0,0,.88-3.9,3.56,3.56,0,0,1,.9-2.31,4.54,4.54,0,0,0,1.1-2.71c0-.44.23-2,1-2s1,1.56,1,2A4.53,4.53,0,0,0,310,91a3.52,3.52,0,0,1,.91,2.31,10.46,10.46,0,0,0,.87,3.9,5.52,5.52,0,0,1,.48,1.72,3.16,3.16,0,0,1-.25,1.29,8,8,0,0,0-.55,3.07,7.7,7.7,0,0,0,1.5,4.21,5.1,5.1,0,0,1,.61,1.17,9.41,9.41,0,0,0,.8,3.3,6.89,6.89,0,0,1,.54,1.88c0,1.77,1.34,2.82,2.75,3.93a18.18,18.18,0,0,1,4.16,4.18c2.64,3.81,2.86,8,2.86,11.66a9.77,9.77,0,0,0,1.41,4.68,5.08,5.08,0,0,1,.77,2,2.18,2.18,0,0,1-.31,1.18,9.67,9.67,0,0,0-1,4.78,5.38,5.38,0,0,0,1.53,4,5.17,5.17,0,0,0,1.59,1.05,12,12,0,0,0,2.17.72s-1.6,2.89-1.92,3.58c-4.27,9.16,3.65,15.07-.38,22-3,5.09-13.12,4.85-16.4,11.91,0,0,0-28.85,0-29.88h2.54v5.14h7.53v-5.14l4.13,0v-9.57h-4.13v-3h-7.5v3h-2.55v-5.25h5.12v-8.34h-5.13v-6h-8.5v6h-5.14v8.34h5.12v5.25h-2.55v-3h-7.5v3h-4.13v9.55h4.13v5.14h7.54v-5.14h2.53c0,1,0,29.84,0,29.84-3.41-6.85-13-6.85-16-11.88-4-6.93,3.84-12.82-.38-22A20.17,20.17,0,0,0,285.5,152.05Z"/>
        <path class="cls-5" d="M163.28,179.67v-6.45h9.47l22.65-14.41,21.47,14.41h6.78v7.55H256a27.17,27.17,0,0,0,4,1.72,12.54,12.54,0,0,1-2.24,2.46c-1.34,1.12,0,2.47,1.12,2.69s2,1.79,2,1.79l-.68.89c-.67.9-1.11,2,.23,2.91a35.17,35.17,0,0,0,4.92,2.24,30.25,30.25,0,0,1-.89,2.91c-.45,1.12,0,2.24,2,2.24a36.28,36.28,0,0,0,5.37-.67,16.27,16.27,0,0,0-1.57,3.35c-.22,1.12.67,2,2.24,2h2.69l-.38,1.15h-7.27l-2.74,4.12v5.21H172l.07-28.86Z"/>
        <path class="cls-5" d="M252.06,467.52,172,406.87V231.81h1.15l78.92,60.47Z"/>
        <path class="cls-5" d="M444.05,406.87l-80.18,60.72V290.44h-.2l79.61-58.63h.77Z"/>
    </g>
</svg>