<?xml version="1.0" standalone="no"?>
<!DOCTYPE svg PUBLIC "-//W3C//DTD SVG 20010904//EN"
 "http://www.w3.org/TR/2001/REC-SVG-20010904/DTD/svg10.dtd">
<svg version="1.0" xmlns="http://www.w3.org/2000/svg"
 width="1063.000000pt" height="131.000000pt" viewBox="0 0 1063.000000 131.000000"
 preserveAspectRatio="xMidYMid meet">

<g transform="translate(0.000000,131.000000) scale(0.100000,-0.100000)"
fill="#0b3e79" stroke="none">
<path d="M90 1220 l0 -90 100 0 100 0 2 -552 3 -553 90 0 90 0 3 552 2 552
103 3 102 3 0 85 0 85 -297 3 -298 2 0 -90z"/>
<path d="M765 1299 c-3 -8 -4 -297 -3 -644 l3 -630 90 0 90 0 3 273 2 272 54
0 c53 0 55 -1 65 -33 5 -17 42 -135 82 -262 39 -126 76 -236 81 -242 12 -15
174 -18 182 -4 3 4 -38 137 -92 294 l-97 286 25 18 c88 60 130 157 130 297 0
200 -66 322 -200 366 -19 6 -119 14 -222 17 -155 5 -188 3 -193 -8z m372 -189
c50 -30 58 -53 58 -175 0 -161 -24 -191 -164 -202 l-81 -6 0 202 0 201 78 0
c59 0 85 -5 109 -20z"/>
<path d="M1735 1298 c-5 -18 -276 -1240 -278 -1258 -2 -12 13 -16 68 -18 113
-5 108 -10 134 130 13 68 26 129 29 135 3 10 38 13 127 13 l124 0 11 -58 c7
-31 19 -93 28 -137 l17 -80 83 -3 c65 -2 84 0 88 12 6 16 -265 1245 -279 1264
-6 7 -35 12 -79 12 -46 0 -70 -4 -73 -12z m164 -805 c1 -22 -2 -23 -83 -23
-47 0 -87 3 -89 8 -3 5 72 412 84 452 2 8 88 -414 88 -437z"/>
<path d="M2260 665 l0 -646 88 3 87 3 5 380 c3 211 9 371 14 360 4 -11 67
-182 139 -380 l132 -360 85 0 85 0 0 640 0 640 -90 0 -90 0 -5 -378 -5 -379
-134 374 c-73 205 -139 376 -145 380 -6 4 -46 8 -88 8 l-78 0 0 -645z"/>
<path d="M3237 1299 c-54 -16 -131 -90 -163 -157 -39 -82 -45 -221 -15 -321
29 -96 70 -136 199 -191 222 -96 215 -88 210 -256 -3 -108 -4 -115 -30 -140
-19 -20 -39 -28 -77 -32 -95 -9 -134 25 -149 130 l-7 53 -89 3 -88 3 3 -78 c5
-89 28 -144 87 -206 63 -66 129 -91 238 -89 121 2 219 62 263 163 29 64 45
181 37 270 -15 184 -63 244 -254 315 -161 61 -177 78 -177 188 0 131 33 176
127 176 74 0 106 -36 117 -135 l6 -50 94 -3 94 -3 -5 78 c-7 93 -23 137 -74
192 -65 73 -114 95 -219 98 -49 1 -107 -3 -128 -8z"/>
<path d="M3795 1299 c-3 -8 -4 -297 -3 -644 l3 -630 90 0 90 0 3 253 2 252 93
0 c113 0 172 24 234 94 54 62 73 119 80 246 6 119 -7 222 -38 281 -27 55 -95
116 -148 134 -65 23 -398 34 -406 14z m379 -198 c34 -32 50 -113 43 -223 -9
-143 -43 -178 -172 -178 l-65 0 0 216 0 216 84 -3 c72 -3 88 -7 110 -28z"/>
<path d="M4707 1296 c-76 -28 -142 -95 -174 -177 -15 -38 -17 -94 -21 -407 -4
-395 3 -479 43 -548 121 -206 448 -189 546 28 l24 53 0 420 0 420 -26 55 c-31
64 -77 113 -133 142 -53 27 -203 35 -259 14z m198 -199 c44 -44 47 -81 43
-487 -2 -245 -6 -331 -16 -348 -31 -55 -114 -77 -172 -47 -61 32 -60 22 -60
453 l0 394 34 34 c30 30 40 34 86 34 45 0 56 -4 85 -33z"/>
<path d="M5295 1299 c-3 -8 -4 -297 -3 -644 l3 -630 90 0 90 0 3 273 2 272 54
0 c53 0 55 -1 65 -33 5 -17 42 -135 82 -262 39 -126 76 -236 81 -242 12 -15
174 -18 182 -4 3 4 -38 137 -92 294 l-97 286 25 18 c88 60 130 157 130 297 0
200 -66 322 -200 366 -19 6 -119 14 -222 17 -155 5 -188 3 -193 -8z m372 -189
c50 -30 58 -53 58 -175 0 -161 -24 -191 -164 -202 l-81 -6 0 202 0 201 78 0
c59 0 85 -5 109 -20z"/>
<path d="M5944 1297 c-3 -8 -4 -47 -2 -88 l3 -74 102 -3 103 -3 2 -552 3 -552
90 0 90 0 3 552 2 552 103 3 102 3 0 85 0 85 -298 3 c-243 2 -298 0 -303 -11z"/>
<path d="M6725 1298 c-5 -18 -276 -1240 -278 -1258 -2 -12 13 -16 68 -18 113
-5 108 -10 134 130 13 68 26 129 29 135 3 10 38 13 127 13 l124 0 11 -58 c7
-31 19 -93 28 -137 l17 -80 83 -3 c65 -2 84 0 88 12 6 16 -265 1245 -279 1264
-6 7 -35 12 -79 12 -46 0 -70 -4 -73 -12z m164 -805 c1 -22 -2 -23 -83 -23
-47 0 -87 3 -89 8 -3 5 72 412 84 452 2 8 88 -414 88 -437z"/>
<path d="M7074 1297 c-3 -8 -4 -47 -2 -88 l3 -74 102 -3 103 -3 2 -552 3 -552
90 0 90 0 3 552 2 552 103 3 102 3 0 85 0 85 -298 3 c-243 2 -298 0 -303 -11z"/>
<path d="M7775 1298 c-3 -7 -4 -296 -3 -643 l3 -630 85 0 85 0 0 640 0 640
-83 3 c-60 2 -84 -1 -87 -10z"/>
<path d="M8307 1296 c-76 -28 -142 -95 -174 -177 -15 -38 -17 -94 -21 -407 -4
-395 3 -479 43 -548 121 -206 448 -189 546 28 l24 53 0 420 0 420 -26 55 c-31
64 -77 113 -133 142 -53 27 -203 35 -259 14z m198 -199 c44 -44 47 -81 43
-487 -2 -245 -6 -331 -16 -348 -31 -55 -114 -77 -172 -47 -61 32 -60 22 -60
453 l0 394 34 34 c30 30 40 34 86 34 45 0 56 -4 85 -33z"/>
<path d="M8890 665 l0 -646 88 3 87 3 5 380 c3 211 9 371 14 360 4 -11 67
-182 139 -380 l132 -360 85 0 85 0 0 640 0 640 -90 0 -90 0 -5 -378 -5 -379
-134 374 c-73 205 -139 376 -145 380 -6 4 -46 8 -88 8 l-78 0 0 -645z"/>
</g>
</svg>
